<svg width="85" height="85" viewBox="0 0 85 85" fill="none" xmlns="http://www.w3.org/2000/svg">
<g clip-path="url(#clip0_101_2)">
<path d="M0 0H85V85H0V0Z" fill="white"/>
<path d="M14.313 49.52C14.313 49.52 27.199 41.297 27.879 41.32C28.693 41.348 35.868 46.734 35.868 46.734C35.868 46.734 54.146 23.785 56.068 24.148C58.677 24.641 70.689 40.391 70.689 40.391V14.72H14.313C14.313 14.72 14.614 49.833 14.313 49.52V49.52Z" fill="#EAEEF2"/>
<path d="M77.5 77.5H7.5V7.5H77.5V77.5ZM11.325 73.675H73.675V11.325H11.325V73.675Z" fill="#EAEEF2"/>
<path d="M24.458 26.69C26.5004 26.69 28.156 25.0344 28.156 22.992C28.156 20.9497 26.5004 19.294 24.458 19.294C22.4157 19.294 20.76 20.9497 20.76 22.992C20.76 25.0344 22.4157 26.69 24.458 26.69Z" fill="white"/>
</g>
<defs>
<clipPath id="clip0_101_2">
<rect width="85" height="85" fill="white"/>
</clipPath>
</defs>
</svg>
